<svg xmlns="http://www.w3.org/2000/svg" xmlns:xlink="http://www.w3.org/1999/xlink" width="500" zoomAndPan="magnify" viewBox="0 0 375 374.999991" height="500" preserveAspectRatio="xMidYMid meet" version="1.0"><defs><g/></defs><rect x="-37.5" width="450" fill="#ffffff" y="-37.499999" height="449.999989" fill-opacity="1"/><rect x="-37.5" width="450" fill="#050a30" y="-37.499999" height="449.999989" fill-opacity="1"/><g fill="#ffffff" fill-opacity="1"><g transform="translate(53.725609, 210.078814)"><g><path d="M 20.796875 -47.5625 C 24.785156 -47.5625 28.75 -46.757812 32.6875 -45.15625 L 31.078125 -36.625 L 29.625 -36.03125 C 27.96875 -37.207031 26.25 -38.132812 24.46875 -38.8125 C 22.695312 -39.488281 21.082031 -39.828125 19.625 -39.828125 C 17.675781 -39.828125 16.117188 -39.304688 14.953125 -38.265625 C 13.785156 -37.222656 13.203125 -36.019531 13.203125 -34.65625 C 13.203125 -33.238281 13.847656 -32.046875 15.140625 -31.078125 C 16.429688 -30.109375 18.460938 -28.96875 21.234375 -27.65625 C 23.898438 -26.4375 26.070312 -25.300781 27.75 -24.25 C 29.4375 -23.207031 30.875 -21.832031 32.0625 -20.125 C 33.25 -18.425781 33.84375 -16.335938 33.84375 -13.859375 C 33.84375 -11.179688 33.113281 -8.734375 31.65625 -6.515625 C 30.195312 -4.304688 28.128906 -2.554688 25.453125 -1.265625 C 22.785156 0.015625 19.703125 0.65625 16.203125 0.65625 C 11.578125 0.65625 6.929688 -0.335938 2.265625 -2.328125 L 3.640625 -11.53125 L 4.734375 -12.109375 C 6.679688 -10.410156 8.8125 -9.109375 11.125 -8.203125 C 13.4375 -7.304688 15.492188 -6.859375 17.296875 -6.859375 C 19.429688 -6.859375 21.09375 -7.378906 22.28125 -8.421875 C 23.476562 -9.472656 24.078125 -10.726562 24.078125 -12.1875 C 24.078125 -13.738281 23.429688 -15 22.140625 -15.96875 C 20.847656 -16.945312 18.769531 -18.117188 15.90625 -19.484375 C 13.28125 -20.648438 11.140625 -21.742188 9.484375 -22.765625 C 7.828125 -23.785156 6.414062 -25.144531 5.25 -26.84375 C 4.082031 -28.550781 3.5 -30.617188 3.5 -33.046875 C 3.5 -35.773438 4.226562 -38.242188 5.6875 -40.453125 C 7.144531 -42.660156 9.1875 -44.394531 11.8125 -45.65625 C 14.445312 -46.925781 17.441406 -47.5625 20.796875 -47.5625 Z M 20.796875 -47.5625 "/></g></g></g><g fill="#009dfe" fill-opacity="1"><g transform="translate(90.036343, 210.078814)"><g><path d="M 8.53125 -9.84375 C 10.039062 -9.84375 11.21875 -9.40625 12.0625 -8.53125 C 12.914062 -7.65625 13.34375 -6.441406 13.34375 -4.890625 C 13.34375 -3.234375 12.878906 -1.914062 11.953125 -0.9375 C 11.035156 0.03125 9.773438 0.515625 8.171875 0.515625 C 6.566406 0.515625 5.335938 0.078125 4.484375 -0.796875 C 3.628906 -1.671875 3.203125 -2.910156 3.203125 -4.515625 C 3.203125 -6.128906 3.675781 -7.421875 4.625 -8.390625 C 5.582031 -9.359375 6.882812 -9.84375 8.53125 -9.84375 Z M 8.53125 -9.84375 "/></g></g></g><g fill="#ffffff" fill-opacity="1"><g transform="translate(106.726254, 210.078814)"><g><path d="M 24.296875 -47.640625 C 30.910156 -47.640625 36.003906 -45.628906 39.578125 -41.609375 C 43.148438 -37.597656 44.9375 -31.898438 44.9375 -24.515625 C 44.9375 -16.441406 42.988281 -10.210938 39.09375 -5.828125 C 35.207031 -1.453125 29.710938 0.734375 22.609375 0.734375 C 16.046875 0.734375 10.976562 -1.316406 7.40625 -5.421875 C 3.832031 -9.535156 2.046875 -15.363281 2.046875 -22.90625 C 2.046875 -30.832031 3.976562 -36.9375 7.84375 -41.21875 C 11.707031 -45.5 17.191406 -47.640625 24.296875 -47.640625 Z M 23.421875 -39.6875 C 19.523438 -39.6875 16.703125 -38.46875 14.953125 -36.03125 C 13.203125 -33.601562 12.328125 -29.640625 12.328125 -24.140625 C 12.328125 -17.867188 13.191406 -13.394531 14.921875 -10.71875 C 16.648438 -8.050781 19.503906 -6.71875 23.484375 -6.71875 C 27.378906 -6.71875 30.203125 -7.941406 31.953125 -10.390625 C 33.703125 -12.847656 34.578125 -16.875 34.578125 -22.46875 C 34.578125 -28.644531 33.710938 -33.054688 31.984375 -35.703125 C 30.265625 -38.359375 27.410156 -39.6875 23.421875 -39.6875 Z M 23.421875 -39.6875 "/></g></g></g><g fill="#fb0140" fill-opacity="1"><g transform="translate(153.620833, 210.078814)"><g><path d="M 8.53125 -9.84375 C 10.039062 -9.84375 11.21875 -9.40625 12.0625 -8.53125 C 12.914062 -7.65625 13.34375 -6.441406 13.34375 -4.890625 C 13.34375 -3.234375 12.878906 -1.914062 11.953125 -0.9375 C 11.035156 0.03125 9.773438 0.515625 8.171875 0.515625 C 6.566406 0.515625 5.335938 0.078125 4.484375 -0.796875 C 3.628906 -1.671875 3.203125 -2.910156 3.203125 -4.515625 C 3.203125 -6.128906 3.675781 -7.421875 4.625 -8.390625 C 5.582031 -9.359375 6.882812 -9.84375 8.53125 -9.84375 Z M 8.53125 -9.84375 "/></g></g></g><g fill="#ffffff" fill-opacity="1"><g transform="translate(170.310744, 210.078814)"><g><path d="M 31.4375 -7.375 L 30.78125 0 L 5.40625 0 L 5.90625 -14 L 5.40625 -46.984375 L 15.46875 -46.984375 L 14.875 -14.875 L 15.09375 -8.171875 L 30.859375 -8.171875 Z M 31.4375 -7.375 "/></g></g></g><g fill="#ffde59" fill-opacity="1"><g transform="translate(201.872316, 210.078814)"><g><path d="M 8.53125 -9.84375 C 10.039062 -9.84375 11.21875 -9.40625 12.0625 -8.53125 C 12.914062 -7.65625 13.34375 -6.441406 13.34375 -4.890625 C 13.34375 -3.234375 12.878906 -1.914062 11.953125 -0.9375 C 11.035156 0.03125 9.773438 0.515625 8.171875 0.515625 C 6.566406 0.515625 5.335938 0.078125 4.484375 -0.796875 C 3.628906 -1.671875 3.203125 -2.910156 3.203125 -4.515625 C 3.203125 -6.128906 3.675781 -7.421875 4.625 -8.390625 C 5.582031 -9.359375 6.882812 -9.84375 8.53125 -9.84375 Z M 8.53125 -9.84375 "/></g></g></g><g fill="#ffffff" fill-opacity="1"><g transform="translate(218.562227, 210.078814)"><g><path d="M 15.171875 -14.875 L 15.609375 0 L 5.6875 0 L 6.203125 -14 L 5.6875 -46.984375 L 15.765625 -46.984375 Z M 15.171875 -14.875 "/></g></g></g><g fill="#ffffff" fill-opacity="1"><g transform="translate(240.081654, 210.078814)"><g><path d="M 8.53125 -9.84375 C 10.039062 -9.84375 11.21875 -9.40625 12.0625 -8.53125 C 12.914062 -7.65625 13.34375 -6.441406 13.34375 -4.890625 C 13.34375 -3.234375 12.878906 -1.914062 11.953125 -0.9375 C 11.035156 0.03125 9.773438 0.515625 8.171875 0.515625 C 6.566406 0.515625 5.335938 0.078125 4.484375 -0.796875 C 3.628906 -1.671875 3.203125 -2.910156 3.203125 -4.515625 C 3.203125 -6.128906 3.675781 -7.421875 4.625 -8.390625 C 5.582031 -9.359375 6.882812 -9.84375 8.53125 -9.84375 Z M 8.53125 -9.84375 "/></g></g></g><g fill="#ffffff" fill-opacity="1"><g transform="translate(256.786565, 210.078814)"><g><path d="M 24.578125 -47.28125 C 31.390625 -47.28125 36.617188 -45.378906 40.265625 -41.578125 C 43.910156 -37.785156 45.734375 -32.335938 45.734375 -25.234375 C 45.734375 -16.921875 43.691406 -10.550781 39.609375 -6.125 C 35.523438 -1.695312 29.691406 0.515625 22.109375 0.515625 C 19.816406 0.515625 17.078125 0.460938 13.890625 0.359375 C 10.710938 0.265625 7.976562 0.144531 5.6875 0 L 6.203125 -14 L 5.6875 -46.984375 Z M 23.859375 -7.15625 C 31.585938 -7.15625 35.453125 -12.429688 35.453125 -22.984375 C 35.453125 -28.722656 34.515625 -32.890625 32.640625 -35.484375 C 30.773438 -38.085938 27.847656 -39.390625 23.859375 -39.390625 C 21.273438 -39.390625 18.523438 -39.269531 15.609375 -39.03125 L 15.171875 -14.875 L 15.390625 -7.65625 C 18.796875 -7.320312 21.617188 -7.15625 23.859375 -7.15625 Z M 23.859375 -7.15625 "/></g></g></g><g fill="#cb6ce6" fill-opacity="1"><g transform="translate(304.562761, 210.078814)"><g><path d="M 8.53125 -9.84375 C 10.039062 -9.84375 11.21875 -9.40625 12.0625 -8.53125 C 12.914062 -7.65625 13.34375 -6.441406 13.34375 -4.890625 C 13.34375 -3.234375 12.878906 -1.914062 11.953125 -0.9375 C 11.035156 0.03125 9.773438 0.515625 8.171875 0.515625 C 6.566406 0.515625 5.335938 0.078125 4.484375 -0.796875 C 3.628906 -1.671875 3.203125 -2.910156 3.203125 -4.515625 C 3.203125 -6.128906 3.675781 -7.421875 4.625 -8.390625 C 5.582031 -9.359375 6.882812 -9.84375 8.53125 -9.84375 Z M 8.53125 -9.84375 "/></g></g></g></svg>