<svg xmlns="http://www.w3.org/2000/svg" xmlns:xlink="http://www.w3.org/1999/xlink" width="500" zoomAndPan="magnify" viewBox="0 0 375 374.999991" height="500" preserveAspectRatio="xMidYMid meet" version="1.0"><defs><clipPath id="750113fe2d"><path d="M 54.449219 123 L 300 123 L 300 291.066406 L 54.449219 291.066406 Z M 54.449219 123 " clip-rule="nonzero"/></clipPath><clipPath id="4f1f08b2f0"><path d="M 272 84.066406 L 320.699219 84.066406 L 320.699219 132 L 272 132 Z M 272 84.066406 " clip-rule="nonzero"/></clipPath></defs><rect x="-37.5" width="450" fill="#ffffff" y="-37.499999" height="449.999989" fill-opacity="1"/><rect x="-37.5" width="450" fill="#ffffff" y="-37.499999" height="449.999989" fill-opacity="1"/><rect x="-37.5" width="450" fill="#050a30" y="-37.499999" height="449.999989" fill-opacity="1"/><g clip-path="url(#750113fe2d)"><path fill="#3a9bdc" d="M 83.5 123.339844 L 188.613281 123.339844 L 188.613281 131.921875 L 96.050781 131.921875 C 92.617188 131.921875 89.808594 134.730469 89.808594 138.160156 L 89.808594 235.9375 C 89.808594 239.371094 92.617188 242.179688 96.050781 242.179688 L 257.257812 242.179688 C 260.691406 242.179688 263.496094 239.371094 263.496094 235.9375 L 263.496094 204.734375 L 277.019531 204.734375 L 277.019531 243.546875 C 277.019531 245.988281 275.792969 248.152344 273.925781 249.460938 L 277.019531 249.460938 C 277.019531 249.460938 284.644531 258.472656 299.898438 276.503906 C 297.816406 284.75 293.65625 289.601562 287.417969 291.066406 C 287.417969 291.066406 214.613281 291.066406 69.007812 291.066406 C 61.820312 290.875 56.96875 286.019531 54.449219 276.503906 C 54.449219 276.503906 62.074219 267.488281 77.328125 249.460938 L 79.382812 249.460938 C 77.515625 248.152344 76.289062 245.988281 76.289062 243.546875 L 76.289062 130.550781 C 76.289062 126.582031 79.535156 123.339844 83.5 123.339844 Z M 159.492188 280.664062 L 194.855469 280.664062 C 196.570312 280.664062 197.972656 282.066406 197.972656 283.785156 C 197.972656 285.5 196.570312 286.90625 194.855469 286.90625 L 159.492188 286.90625 C 157.777344 286.90625 156.371094 285.5 156.371094 283.785156 C 156.371094 282.066406 157.777344 280.664062 159.492188 280.664062 Z M 139.730469 277.542969 C 143.890625 271.300781 145.972656 268.179688 145.972656 268.179688 C 187.574219 268.179688 208.375 268.179688 208.375 268.179688 C 212.535156 274.421875 214.613281 277.542969 214.613281 277.542969 C 164.691406 277.542969 139.730469 277.542969 139.730469 277.542969 Z M 139.730469 277.542969 " fill-opacity="1" fill-rule="evenodd"/></g><path fill="#12229d" d="M 160.53125 189.128906 L 181.332031 189.128906 L 181.332031 209.933594 L 160.53125 209.933594 Z M 160.53125 189.128906 " fill-opacity="1" fill-rule="evenodd"/><path fill="#233dff" d="M 192.773438 188.089844 L 211.242188 188.089844 L 211.242188 206.5625 L 192.773438 206.5625 Z M 192.773438 188.089844 " fill-opacity="1" fill-rule="evenodd"/><path fill="#5cb6f9" d="M 258.226562 155.835938 L 297.757812 155.835938 L 297.757812 195.371094 L 258.226562 195.371094 Z M 258.226562 155.835938 " fill-opacity="1" fill-rule="evenodd"/><path fill="#f4f6fc" d="M 227.222656 180.933594 L 249.976562 180.933594 L 249.976562 203.691406 L 227.222656 203.691406 Z M 227.222656 180.933594 " fill-opacity="1" fill-rule="evenodd"/><path fill="#12229d" d="M 206.421875 155.972656 L 229.175781 155.972656 L 229.175781 178.730469 L 206.421875 178.730469 Z M 206.421875 155.972656 " fill-opacity="1" fill-rule="evenodd"/><path fill="#5cb6f9" d="M 198.039062 126.785156 L 220.792969 126.785156 L 220.792969 149.542969 L 198.039062 149.542969 Z M 198.039062 126.785156 " fill-opacity="1" fill-rule="evenodd"/><path fill="#f4f6fc" d="M 174.179688 165.332031 L 192.648438 165.332031 L 192.648438 183.804688 L 174.179688 183.804688 Z M 174.179688 165.332031 " fill-opacity="1" fill-rule="evenodd"/><path fill="#233dff" d="M 233.332031 117.355469 L 265.578125 117.355469 L 265.578125 149.605469 L 233.332031 149.605469 Z M 233.332031 117.355469 " fill-opacity="1" fill-rule="evenodd"/><path fill="#12229d" d="M 239.640625 87.257812 L 262.394531 87.257812 L 262.394531 110.015625 L 239.640625 110.015625 Z M 239.640625 87.257812 " fill-opacity="1" fill-rule="evenodd"/><g clip-path="url(#4f1f08b2f0)"><path fill="#f4f6fc" d="M 272.851562 84.070312 L 320.699219 84.070312 L 320.699219 131.921875 L 272.851562 131.921875 Z M 272.851562 84.070312 " fill-opacity="1" fill-rule="evenodd"/></g></svg>