<svg xmlns="http://www.w3.org/2000/svg" xmlns:xlink="http://www.w3.org/1999/xlink" width="500" zoomAndPan="magnify" viewBox="0 0 375 374.999991" height="500" preserveAspectRatio="xMidYMid meet" version="1.0"><rect x="-37.5" width="450" fill="#ffffff" y="-37.499999" height="449.999989" fill-opacity="1"/><rect x="-37.5" width="450" fill="#050a30" y="-37.499999" height="449.999989" fill-opacity="1"/><path fill="#f6d397" d="M 96.042969 103.589844 L 114.554688 256.828125 C 115.210938 262.253906 119.082031 266.765625 124.375 268.269531 L 183.761719 285.125 C 186.164062 285.804688 188.707031 285.824219 191.117188 285.167969 L 253.574219 268.25 C 259.042969 266.769531 263.019531 262.097656 263.582031 256.496094 L 278.988281 103.457031 C 279.390625 99.460938 276.230469 95.992188 272.183594 95.992188 L 102.828125 95.992188 C 98.730469 95.992188 95.550781 99.550781 96.042969 103.589844 Z M 96.042969 103.589844 " fill-opacity="1" fill-rule="nonzero"/><path fill="#f9e3ae" d="M 256.375 112.925781 L 187.433594 112.925781 L 187.433594 268.714844 C 188.441406 268.71875 189.449219 268.582031 190.429688 268.296875 L 241.238281 253.492188 C 245.683594 252.199219 248.921875 248.109375 249.378906 243.207031 L 261.914062 119.460938 C 262.238281 115.960938 259.667969 112.925781 256.375 112.925781 Z M 256.375 112.925781 " fill-opacity="1" fill-rule="nonzero"/><path fill="#8d6c9f" d="M 187.515625 289.035156 C 185.941406 289.035156 184.367188 288.816406 182.835938 288.386719 L 123.445312 271.527344 C 116.824219 269.644531 112.011719 264.035156 111.191406 257.234375 L 92.675781 103.996094 C 92.328125 101.117188 93.234375 98.222656 95.15625 96.046875 C 97.101562 93.859375 99.894531 92.605469 102.828125 92.605469 L 272.1875 92.605469 C 275.082031 92.605469 277.851562 93.832031 279.789062 95.972656 C 281.707031 98.101562 282.648438 100.953125 282.363281 103.800781 L 266.953125 256.832031 C 266.253906 263.78125 261.234375 269.683594 254.460938 271.519531 L 192.003906 288.4375 C 190.535156 288.835938 189.027344 289.035156 187.515625 289.035156 Z M 102.828125 99.378906 C 101.820312 99.378906 100.898438 99.789062 100.230469 100.542969 C 99.582031 101.277344 99.285156 102.214844 99.40625 103.183594 L 117.921875 256.421875 C 118.414062 260.503906 121.308594 263.878906 125.304688 265.011719 L 184.6875 281.867188 C 186.496094 282.382812 188.425781 282.394531 190.234375 281.898438 L 252.691406 264.976562 C 256.773438 263.875 259.796875 260.324219 260.214844 256.15625 L 275.621094 103.121094 C 275.71875 102.160156 275.414062 101.234375 274.765625 100.515625 C 274.097656 99.78125 273.179688 99.378906 272.183594 99.378906 Z M 102.828125 99.378906 " fill-opacity="1" fill-rule="nonzero"/><path fill="#8d6c9f" d="M 272.101562 119.699219 C 270.226562 119.699219 268.714844 118.179688 268.714844 116.3125 L 268.714844 109.539062 C 268.714844 107.667969 270.226562 106.152344 272.101562 106.152344 C 273.972656 106.152344 275.488281 107.667969 275.488281 109.539062 L 275.488281 116.3125 C 275.488281 118.179688 273.972656 119.699219 272.101562 119.699219 Z M 255.167969 119.699219 C 253.292969 119.699219 251.78125 118.179688 251.78125 116.3125 L 251.78125 109.539062 C 251.78125 107.667969 253.292969 106.152344 255.167969 106.152344 C 257.039062 106.152344 258.554688 107.667969 258.554688 109.539062 L 258.554688 116.3125 C 258.554688 118.179688 257.039062 119.699219 255.167969 119.699219 Z M 238.234375 119.699219 C 236.359375 119.699219 234.847656 118.179688 234.847656 116.3125 L 234.847656 109.539062 C 234.847656 107.667969 236.359375 106.152344 238.234375 106.152344 C 240.105469 106.152344 241.621094 107.667969 241.621094 109.539062 L 241.621094 116.3125 C 241.621094 118.179688 240.105469 119.699219 238.234375 119.699219 Z M 221.300781 119.699219 C 219.425781 119.699219 217.914062 118.179688 217.914062 116.3125 L 217.914062 109.539062 C 217.914062 107.667969 219.425781 106.152344 221.300781 106.152344 C 223.171875 106.152344 224.6875 107.667969 224.6875 109.539062 L 224.6875 116.3125 C 224.6875 118.179688 223.171875 119.699219 221.300781 119.699219 Z M 204.367188 119.699219 C 202.492188 119.699219 200.980469 118.179688 200.980469 116.3125 L 200.980469 109.539062 C 200.980469 107.667969 202.492188 106.152344 204.367188 106.152344 C 206.238281 106.152344 207.753906 107.667969 207.753906 109.539062 L 207.753906 116.3125 C 207.753906 118.179688 206.238281 119.699219 204.367188 119.699219 Z M 187.433594 119.699219 C 185.558594 119.699219 184.046875 118.179688 184.046875 116.3125 L 184.046875 109.539062 C 184.046875 107.667969 185.558594 106.152344 187.433594 106.152344 C 189.304688 106.152344 190.820312 107.667969 190.820312 109.539062 L 190.820312 116.3125 C 190.820312 118.179688 189.304688 119.699219 187.433594 119.699219 Z M 170.5 119.699219 C 168.625 119.699219 167.113281 118.179688 167.113281 116.3125 L 167.113281 109.539062 C 167.113281 107.667969 168.625 106.152344 170.5 106.152344 C 172.371094 106.152344 173.886719 107.667969 173.886719 109.539062 L 173.886719 116.3125 C 173.886719 118.179688 172.371094 119.699219 170.5 119.699219 Z M 153.566406 119.699219 C 151.691406 119.699219 150.179688 118.179688 150.179688 116.3125 L 150.179688 109.539062 C 150.179688 107.667969 151.691406 106.152344 153.566406 106.152344 C 155.4375 106.152344 156.953125 107.667969 156.953125 109.539062 L 156.953125 116.3125 C 156.953125 118.179688 155.4375 119.699219 153.566406 119.699219 Z M 136.632812 119.699219 C 134.757812 119.699219 133.246094 118.179688 133.246094 116.3125 L 133.246094 109.539062 C 133.246094 107.667969 134.757812 106.152344 136.632812 106.152344 C 138.503906 106.152344 140.019531 107.667969 140.019531 109.539062 L 140.019531 116.3125 C 140.019531 118.179688 138.503906 119.699219 136.632812 119.699219 Z M 119.699219 119.699219 C 117.824219 119.699219 116.3125 118.179688 116.3125 116.3125 L 116.3125 109.539062 C 116.3125 107.667969 117.824219 106.152344 119.699219 106.152344 C 121.570312 106.152344 123.085938 107.667969 123.085938 109.539062 L 123.085938 116.3125 C 123.085938 118.179688 121.570312 119.699219 119.699219 119.699219 Z M 102.765625 119.699219 C 100.890625 119.699219 99.378906 118.179688 99.378906 116.3125 L 99.378906 109.539062 C 99.378906 107.667969 100.890625 106.152344 102.765625 106.152344 C 104.636719 106.152344 106.152344 107.667969 106.152344 109.539062 L 106.152344 116.3125 C 106.152344 118.179688 104.636719 119.699219 102.765625 119.699219 Z M 102.765625 119.699219 " fill-opacity="1" fill-rule="nonzero"/><path fill="#faefde" d="M 160.339844 143.40625 C 160.339844 171.625 160.339844 199.851562 160.339844 228.074219 C 150.179688 225.8125 140.019531 223.558594 129.859375 221.300781 C 130.550781 228.074219 131.246094 234.847656 131.941406 241.621094 C 147.050781 245.929688 162.160156 250.234375 177.273438 254.539062 L 177.273438 143.40625 C 171.625 143.40625 165.984375 143.40625 160.339844 143.40625 Z M 160.339844 143.40625 " fill-opacity="1" fill-rule="nonzero"/><path fill="#faefde" d="M 247.789062 160.5 L 249.261719 143.40625 C 232.039062 143.40625 214.8125 143.40625 197.59375 143.40625 C 197.59375 168.238281 197.59375 193.078125 197.59375 217.914062 C 207.691406 215.578125 217.792969 213.246094 227.890625 210.917969 L 226.820312 226.945312 C 217.078125 229.578125 207.335938 232.210938 197.59375 234.847656 C 197.59375 241.621094 197.59375 248.394531 197.59375 255.167969 C 211.964844 251.039062 226.339844 246.914062 240.710938 242.785156 L 245.214844 190.421875 C 234.988281 191.683594 224.757812 192.945312 214.527344 194.207031 C 214.527344 182.917969 214.527344 171.625 214.527344 160.339844 C 225.613281 160.394531 236.699219 160.445312 247.789062 160.5 Z M 247.789062 160.5 " fill-opacity="1" fill-rule="nonzero"/><path fill="#8d6c9f" d="M 177.273438 257.925781 C 176.960938 257.925781 176.648438 257.882812 176.34375 257.796875 L 131.011719 244.878906 C 129.679688 244.5 128.714844 243.34375 128.570312 241.964844 L 126.488281 221.644531 C 126.378906 220.5625 126.796875 219.492188 127.605469 218.769531 C 128.421875 218.046875 129.527344 217.757812 130.59375 217.996094 L 156.953125 223.851562 L 156.953125 143.40625 C 156.953125 141.535156 158.464844 140.019531 160.339844 140.019531 L 177.273438 140.019531 C 179.144531 140.019531 180.660156 141.535156 180.660156 143.40625 L 180.660156 254.539062 C 180.660156 255.601562 180.160156 256.601562 179.316406 257.242188 C 178.71875 257.695312 178 257.925781 177.273438 257.925781 Z M 135.078125 238.992188 L 173.886719 250.054688 L 173.886719 146.792969 L 163.726562 146.792969 L 163.726562 228.074219 C 163.726562 229.097656 163.257812 230.070312 162.457031 230.714844 C 161.65625 231.359375 160.609375 231.601562 159.605469 231.378906 L 133.707031 225.625 Z M 135.078125 238.992188 " fill-opacity="1" fill-rule="nonzero"/><path fill="#8d6c9f" d="M 197.59375 258.554688 C 196.863281 258.554688 196.148438 258.320312 195.554688 257.871094 C 194.703125 257.234375 194.207031 256.230469 194.207031 255.167969 L 194.207031 234.847656 C 194.207031 233.316406 195.230469 231.976562 196.707031 231.578125 L 223.597656 224.308594 L 224.207031 215.242188 L 198.351562 221.210938 C 197.359375 221.453125 196.296875 221.207031 195.484375 220.566406 C 194.667969 219.921875 194.207031 218.945312 194.207031 217.914062 L 194.207031 143.40625 C 194.207031 141.535156 195.71875 140.019531 197.59375 140.019531 L 249.265625 140.019531 C 250.210938 140.019531 251.121094 140.417969 251.761719 141.117188 C 252.398438 141.816406 252.71875 142.75 252.636719 143.695312 L 251.160156 160.792969 C 251.011719 162.550781 249.394531 163.996094 247.769531 163.886719 L 217.914062 163.742188 L 217.914062 190.375 L 244.804688 187.058594 C 245.804688 186.9375 246.832031 187.273438 247.566406 187.980469 C 248.300781 188.6875 248.679688 189.691406 248.589844 190.710938 L 244.085938 243.074219 C 243.96875 244.472656 242.996094 245.648438 241.648438 246.035156 L 198.527344 258.414062 C 198.222656 258.507812 197.90625 258.554688 197.59375 258.554688 Z M 200.980469 237.441406 L 200.980469 250.671875 L 237.539062 240.175781 L 241.484375 194.296875 L 214.9375 197.570312 C 213.988281 197.683594 213.011719 197.386719 212.285156 196.742188 C 211.554688 196.097656 211.140625 195.179688 211.140625 194.207031 L 211.140625 160.339844 C 211.140625 159.4375 211.5 158.574219 212.136719 157.9375 C 212.777344 157.300781 213.539062 156.96875 214.542969 156.953125 L 244.679688 157.101562 L 245.574219 146.792969 L 200.980469 146.792969 L 200.980469 213.65625 L 227.132812 207.617188 C 228.171875 207.371094 229.273438 207.640625 230.089844 208.339844 C 230.90625 209.03125 231.339844 210.074219 231.273438 211.144531 L 230.203125 227.171875 C 230.109375 228.613281 229.101562 229.835938 227.707031 230.214844 Z M 200.980469 237.441406 " fill-opacity="1" fill-rule="nonzero"/></svg>